<?xml version="1.0" encoding="UTF-8" standalone="no"?>
<!-- Uploaded to: SVG Repo, www.svgrepo.com, Generator: SVG Repo Mixer Tools -->
<svg width="800px" height="800px" viewBox="0 0 64 64" version="1.1" xmlns="http://www.w3.org/2000/svg" xmlns:xlink="http://www.w3.org/1999/xlink">
    
    <title>cle-peg</title>
    <desc>Created with Sketch.</desc>
    <defs>

</defs>
    <g id="64px-Glyph" stroke="none" stroke-width="1" fill="none" fill-rule="evenodd">
        <g id="cle-peg" fill="#000000">
            <path d="M21.0001,40 C20.1981,40 19.4451,40.312 18.8791,40.879 C18.3121,41.445 18.0001,42.198 18.0001,43 C18.0001,43.802 18.3121,44.555 18.8791,45.121 C20.0121,46.254 21.9881,46.254 23.1211,45.121 C23.6881,44.555 24.0001,43.802 24.0001,43 C24.0001,42.198 23.6881,41.445 23.1211,40.879 C22.5551,40.312 21.8021,40 21.0001,40" id="Fill-84">

</path>
            <path d="M32.6759,33.2285 C33.4139,33.4575 34.2019,33.3895 34.8889,33.0295 C35.5759,32.6695 36.0809,32.0645 36.3139,31.3245 C36.7899,29.7955 35.9359,28.1645 34.4069,27.6865 C34.1209,27.5975 33.8299,27.5545 33.5439,27.5545 C32.3079,27.5545 31.1589,28.3515 30.7709,29.5925 C30.5399,30.3325 30.6109,31.1185 30.9709,31.8045 C31.3299,32.4915 31.9359,32.9975 32.6759,33.2285" id="Fill-85">

</path>
            <path d="M28.8624,28.9961 C29.6694,26.4151 32.4274,24.9731 35.0044,25.7781 C35.4474,25.9171 35.8424,26.1301 36.2134,26.3731 L40.8204,21.7661 L44.1754,7.2251 C44.2754,6.7901 44.0764,6.3421 43.6854,6.1251 C43.2984,5.9101 42.8104,5.9771 42.4944,6.2931 L19.4784,29.3091 L28.9564,32.1311 C28.5984,31.1541 28.5284,30.0641 28.8624,28.9961" id="Fill-86">

</path>
            <path d="M57.8751,20.3145 C57.6581,19.9235 57.2131,19.7215 56.7751,19.8245 L42.2341,23.1795 L37.6251,27.7895 C38.3971,28.9735 38.6751,30.4685 38.2221,31.9195 L38.2221,31.9205 C37.5661,34.0155 35.6271,35.3615 33.5401,35.3615 C33.0661,35.3615 32.5851,35.2895 32.1091,35.1435 C32.1041,35.1425 32.0991,35.1435 32.0951,35.1415 L30.6901,34.7235 L25.1711,40.2435 C25.7091,41.0545 26.0001,42.0045 26.0001,43.0005 C26.0001,44.3355 25.4791,45.5915 24.5351,46.5355 C23.5921,47.4795 22.3361,48.0005 21.0001,48.0005 C20.0041,48.0005 19.0541,47.7095 18.2431,47.1705 L14.4721,50.9415 C13.9931,53.3645 14.3271,56.3065 16.8791,59.3005 C17.2371,59.7225 17.7621,59.9765 18.3151,59.9985 C18.3411,59.9985 18.3661,60.0005 18.3931,60.0005 C18.9161,60.0005 19.4221,59.7915 19.7901,59.4215 L57.7071,21.5055 C58.0221,21.1905 58.0911,20.7045 57.8751,20.3145" id="Fill-87">

</path>
            <path d="M13.0639,49.5222 L16.8289,45.7572 C16.2909,44.9462 15.9999,43.9962 15.9999,43.0002 C15.9999,41.6642 16.5209,40.4082 17.4649,39.4652 C18.4079,38.5202 19.6639,38.0002 20.9999,38.0002 C21.9959,38.0002 22.9459,38.2912 23.7569,38.8292 L28.5109,34.0752 L17.8739,30.9132 L4.5779,44.2092 C4.1899,44.5962 3.9799,45.1352 4.0019,45.6852 C4.0239,46.2392 4.2779,46.7622 4.6989,47.1212 C6.9669,49.0532 9.2059,49.7172 11.2119,49.7172 C11.8579,49.7172 12.4739,49.6402 13.0639,49.5222" id="Fill-88">

</path>
        </g>
    </g>
</svg>